<?xml version="1.0" standalone="no"?><!DOCTYPE svg PUBLIC "-//W3C//DTD SVG 1.1//EN" "http://www.w3.org/Graphics/SVG/1.1/DTD/svg11.dtd"><svg t="1601973212089" class="icon" viewBox="0 0 1024 1024" version="1.1" xmlns="http://www.w3.org/2000/svg" p-id="3289" xmlns:xlink="http://www.w3.org/1999/xlink" width="200" height="200"><defs><style type="text/css"></style></defs><path d="M97.270246 155.930064c209.084428 0 418.176081 0 627.260509 0 17.780738 2.817752 31.855048 11.812884 38.314203 27.621195 4.609553 11.234883 3.561928 25.525944 3.561928 40.98023 0 14.05986 0 29.391322 0 44.549383-14.847386 0-29.694772 0-44.556608 0-0.4624-15.750512 1.603951-29.282946-2.666027-40.091554-4.204953-10.656883-16.407987-23.091117-28.502646-26.725295-8.698906-2.615452-20.865815-1.784576-33.870825-1.784576-128.633994 0-256.617738 0-386.682283 0-28.892796 0-72.018853 0-105.138277 0-12.239159 0-23.885867-0.830876-32.967699 1.784576-14.00206 4.017103-25.157468 15.902237-29.398547 26.725295-3.814803 9.753757-2.673252 24.731193-2.673252 40.987455 0 88.81699 0 173.739702 0 261.949792 0 15.338686-1.943526 34.16705 1.784576 44.563833 4.631228 12.896634 16.270712 24.788993 28.509871 28.502646 15.049686 4.573428 39.665279 1.791801 58.804318 1.791801 141.039328 0 282.945657 0 424.122261 0 0 37.411077 0 74.822155 0 112.254907-155.612164 0-332.198518 0-493.612362 0-13.546885 0-27.29607 1.033176-36.529627-2.666027-5.035829-2.030226-11.097608-6.516955-15.143611-10.707458-7.737981-7.976406-9.724857-15.439836-12.484809-27.606745 0-160.084442 0-320.161659 0-480.246102C59.273943 173.768602 72.929203 159.513667 97.270246 155.930064z" p-id="3290"></path><path d="M982.029944 357.298187c0 162.757694 0 325.522613 0 488.273083-2.781627 18.019163-13.041135 28.545996-30.279997 32.071798-91.186792 0-182.351909 0-273.531475 0-13.243435-2.326452-23.177817-9.746532-27.621195-20.490115-4.855204-11.740634-2.673252-42.092881-2.673252-63.269371 0-139.623227 0-278.509504 0-416.102505 0-12.022409-0.744176-23.423467 1.784576-30.279997 1.112651-3.070627 4.602328-8.178706 8.012531-11.588908 11.126508-11.126508 25.049093-9.797107 47.222635-9.797107 63.984647 0 120.693713 0 185.328611 0 16.776462 0 39.629154-0.888676 56.123841 0 6.003979 0.325125 12.296959 1.025951 16.046737 2.666027 1.076526 0.47685 1.510026 1.914626 2.666027 2.673252 1.257151 0.823651 3.533028 1.025951 4.465053 1.791801 2.297552 1.907401 3.706428 4.811854 5.332054 7.123855 0.801976 1.148776 2.030226 1.531701 2.687702 2.673252C980.144218 347.537205 980.043068 351.944458 982.029944 357.298187zM731.669061 373.337698c2.355352 4.978029 8.648331 4.400028 17.824088 4.450603 40.756255 0.223975 74.807705 0 114.032259 0 7.15998 0 16.422437 0.700826 23.170592 0 4.884104-0.4913 6.083454 0.151725 8.901207-2.673252 2.037451-2.023001 3.757003-4.233853 2.666027-8.901207-1.184901-5.180329-5.794454-5.787229-14.24771-6.242405-20.085515-1.069301-43.472857 0-62.380696 0-32.563099 0-58.081818-1.885726-83.759486 0-0.917576 0.07225-0.50575 0.751401-0.888676 0.895901C732.622762 362.608566 728.764609 367.268694 731.669061 373.337698zM680.870049 414.325153c0 131.560121 0 263.134693 0 394.723714 89.402215 0 178.789981 0 268.184971 0 0-132.477697 0-264.940944 0-397.396966-89.098765 0-178.190306 0-267.296296 0C680.725549 411.803627 680.805024 413.053553 680.870049 414.325153zM800.270486 851.813674c2.846652 4.573428 6.892655 8.395456 12.470359 8.879532 2.514302 0.238425 6.55308 0.01445 8.908432-0.888676 2.557652-0.975376 7.831906-6.170155 8.901207-8.893982 2.955027-7.47788 0.281775-14.659536-1.777351-17.824088-2.131377-3.229577-4.017103-4.327778-6.227955-5.332054-4.031553-1.864051-6.040104-2.550427-12.484809-0.903126C798.030734 829.914683 794.952882 843.252043 800.270486 851.813674z" p-id="3291"></path><path d="M323.586312 742.217569c58.515318 0 117.016186 0 175.524279 0 0 22.267466 0 44.549383 0 66.831299 2.940577 3.244027 7.11663 4.233853 10.693008 6.227955 5.584929 3.113977 11.776759 6.76983 17.824088 10.685783 1.661751 1.083751 4.501178 2.810527 7.11663 4.457828 2.261427 1.387201 4.125478 2.442052 6.227955 4.457828 0.932026 0.867001 4.407253 2.940577 6.242405 4.436153 1.401651 1.141551 2.694927 1.943526 4.443378 3.554703 1.069301 1.025951 2.839427 2.044676 4.465053 3.583603 3.807578 3.569153 16.949862 11.133733 16.046737 19.601439-1.697876 15.945587-56.477866 10.685783-75.73973 10.685783-74.69933 0-139.225852 0-213.845707 0-22.455316 0-42.548056-4.219403-27.621195-21.378791 1.445001-1.661751 4.089353-4.580653 6.242405-6.23518 0.614125-0.47685 2.023001-0.339575 2.666027-0.888676 2.160277-1.864051 3.706428-4.515628 6.242405-6.24963 0.6647-0.440725 1.936301-0.339575 2.666027-0.888676 0.751401-0.5491 1.047626-2.145827 1.777351-2.666027 0.867001-0.59245 1.907401-0.310675 2.680477-0.888676 13.893685-10.331758 29.962097-19.897665 45.445283-27.606745 0-21.689466 0-43.378932 0-65.053948C322.618161 743.611995 322.553136 742.369294 323.586312 742.217569z" p-id="3292"></path></svg>