<svg class="icon" viewBox="0 0 1024 1024" xmlns="http://www.w3.org/2000/svg" width="200" height="200"><defs><style/></defs><path d="M97.27 155.93h627.26c17.781 2.818 31.856 11.813 38.315 27.621 4.61 11.235 3.562 25.526 3.562 40.98v44.55H721.85c-.462-15.75 1.604-29.283-2.666-40.092-4.205-10.657-16.408-23.09-28.502-26.725-8.7-2.615-20.866-1.785-33.871-1.785H164.99c-12.239 0-23.886-.83-32.967 1.785-14.003 4.017-25.158 15.902-29.399 26.725-3.815 9.754-2.673 24.732-2.673 40.988v261.95c0 15.338-1.944 34.167 1.784 44.563 4.632 12.897 16.271 24.79 28.51 28.503 15.05 4.573 39.665 1.792 58.804 1.792h424.123V719.04H119.559c-13.546 0-27.296 1.033-36.53-2.666-5.035-2.03-11.097-6.517-15.143-10.708-7.738-7.976-9.725-15.44-12.485-27.606V197.813c3.873-24.044 17.528-38.3 41.87-41.883z"/><path d="M982.03 357.298v488.273c-2.782 18.02-13.041 28.546-30.28 32.072H678.218c-13.243-2.326-23.177-9.746-27.62-20.49-4.856-11.74-2.674-42.093-2.674-63.27V377.782c0-12.022-.744-23.423 1.785-30.28 1.112-3.07 4.602-8.179 8.012-11.589 11.127-11.126 25.05-9.797 47.223-9.797h185.328c16.777 0 39.63-.889 56.124 0 6.004.325 12.297 1.026 16.047 2.666 1.076.477 1.51 1.915 2.666 2.673 1.257.824 3.533 1.026 4.465 1.792 2.298 1.908 3.706 4.812 5.332 7.124.802 1.149 2.03 1.532 2.688 2.673 2.55 4.494 2.45 8.901 4.436 14.255zm-250.36 16.04c2.354 4.978 8.647 4.4 17.823 4.45 40.756.224 74.808 0 114.032 0 7.16 0 16.423.701 23.171 0 4.884-.491 6.083.152 8.901-2.673 2.038-2.023 3.757-4.234 2.666-8.901-1.185-5.18-5.794-5.787-14.247-6.243-20.086-1.069-43.473 0-62.381 0-32.563 0-58.082-1.885-83.76 0-.917.073-.505.752-.888.896-4.364 1.742-8.222 6.402-5.318 12.47zm-50.8 40.987V809.05h268.185V411.652H681.759c-1.033.152-.954 1.402-.889 2.673zm119.4 437.489c2.847 4.573 6.893 8.395 12.47 8.88 2.515.238 6.554.014 8.91-.89 2.557-.975 7.831-6.17 8.9-8.893 2.956-7.478.282-14.66-1.777-17.825-2.131-3.23-4.017-4.327-6.228-5.332-4.031-1.864-6.04-2.55-12.485-.903-12.03 3.064-15.107 16.401-9.79 24.963zM323.586 742.218h175.525v66.83c2.94 3.245 7.116 4.235 10.693 6.229 5.585 3.114 11.776 6.77 17.824 10.686 1.661 1.083 4.5 2.81 7.116 4.457 2.262 1.388 4.126 2.442 6.228 4.458.932.867 4.408 2.94 6.243 4.436 1.401 1.142 2.695 1.944 4.443 3.555 1.07 1.026 2.84 2.045 4.465 3.584 3.808 3.569 16.95 11.133 16.047 19.601-1.698 15.946-56.478 10.686-75.74 10.686H282.584c-22.455 0-42.548-4.22-27.62-21.379 1.444-1.662 4.089-4.58 6.242-6.235.614-.477 2.023-.34 2.666-.889 2.16-1.864 3.706-4.515 6.242-6.25.665-.44 1.936-.339 2.666-.888.751-.55 1.048-2.146 1.777-2.666.867-.592 1.908-.31 2.68-.889 13.895-10.331 29.963-19.897 45.446-27.606v-65.054c-.065-1.272-.13-2.515.903-2.666z"/></svg>